<?xml version="1.0" standalone="no"?>
<!DOCTYPE svg PUBLIC "-//W3C//DTD SVG 20010904//EN"
 "http://www.w3.org/TR/2001/REC-SVG-20010904/DTD/svg10.dtd">
<svg version="1.0" xmlns="http://www.w3.org/2000/svg"
 width="509.000000pt" height="510.000000pt" viewBox="0 0 509.000000 510.000000"
 preserveAspectRatio="xMidYMid meet">

<g transform="translate(0.000000,510.000000) scale(0.100000,-0.100000)"
fill="#000000" stroke="none">
<path d="M2305 4444 c-330 -62 -580 -195 -803 -429 -379 -396 -492 -978 -290
-1490 183 -464 584 -792 1078 -882 127 -23 362 -22 490 1 206 38 420 127 585
244 104 75 255 227 332 336 191 270 284 609 254 931 -35 366 -184 675 -445
922 -187 177 -422 300 -686 358 -107 24 -409 29 -515 9z m368 -411 c23 -9 61
-29 84 -45 50 -34 116 -116 108 -135 -2 -8 0 -11 5 -8 6 3 10 1 10 -4 0 -10
-14 -15 -32 -12 -5 0 -8 -5 -8 -11 0 -12 -26 -32 -91 -69 -16 -9 -27 -18 -25
-20 2 -2 -2 -10 -10 -17 -15 -14 -16 -13 -64 55 -49 70 -144 123 -221 123 -88
0 -198 -69 -240 -152 -11 -21 -21 -38 -23 -38 -12 0 21 115 47 163 47 90 149
166 251 187 54 12 157 3 209 -17z m-578 -318 c63 -18 161 -85 143 -96 -19 -13
-36 -10 -18 2 13 9 13 10 0 6 -8 -2 -14 -11 -14 -20 1 -10 -4 -13 -14 -10 -10
4 -13 2 -8 -6 4 -6 4 -11 -1 -10 -24 4 -43 -3 -43 -16 0 -8 -3 -14 -7 -13 -5
2 -24 -9 -44 -25 -29 -22 -46 -27 -91 -27 -116 0 -206 -53 -256 -150 -43 -86
-54 -101 -69 -96 -8 3 -10 -1 -6 -11 5 -12 3 -14 -6 -8 -8 4 -17 2 -21 -6 -15
-23 -43 97 -36 149 9 65 38 142 49 135 6 -4 8 1 4 11 -4 9 -3 15 1 12 7 -4 49
35 44 42 -3 3 37 42 44 42 3 0 3 -4 -1 -9 -3 -5 -1 -12 5 -16 5 -3 10 -3 10 2
0 4 25 24 55 42 30 19 55 39 55 43 0 4 7 8 16 8 9 0 12 5 8 11 -4 7 -1 10 7 7
8 -3 20 1 27 9 18 17 106 17 167 -2z m1138 -13 c49 -22 107 -68 107 -86 0 -7
-9 -21 -20 -31 -11 -10 -20 -13 -20 -7 0 7 5 12 12 12 6 0 8 3 5 6 -9 9 -64
-51 -59 -64 2 -7 -6 -7 -22 1 -14 7 -28 20 -31 29 -9 26 -83 88 -133 110 -33
15 -41 22 -31 29 8 5 10 9 4 9 -5 0 -3 5 5 11 22 15 133 3 183 -19z m154 -750
c53 -70 75 -144 71 -242 -3 -66 -9 -98 -30 -142 -58 -124 -175 -208 -304 -216
-40 -2 -81 -1 -91 3 -10 5 -23 7 -30 6 -6 -1 -9 6 -7 16 2 10 -4 53 -14 96
-11 42 -15 77 -10 77 5 0 6 4 3 10 -11 17 -14 51 -5 45 25 -15 110 -23 160
-13 68 12 116 37 156 80 54 56 69 95 69 178 0 67 -4 81 -34 135 l-34 60 34
-26 c19 -14 48 -45 66 -67z m-1522 18 c46 -22 75 -46 67 -56 -4 -5 3 -1 15 10
22 18 22 18 15 -7 -4 -13 -21 -36 -39 -51 -39 -33 -81 -115 -89 -177 -20 -145
108 -290 258 -293 31 -1 54 -4 52 -8 -9 -14 -107 -38 -154 -38 -97 0 -210 50
-274 120 -144 160 -131 414 28 538 l29 22 31 -23 c17 -12 45 -29 61 -37z m507
-485 c6 -89 28 -151 72 -198 13 -14 21 -29 17 -32 -3 -4 -1 -5 4 -4 6 2 21 -3
33 -10 l24 -13 -29 -28 c-38 -37 -129 -83 -146 -74 -9 5 -9 4 -1 -5 9 -10 17
-10 35 -1 16 9 21 9 13 1 -6 -6 -25 -15 -42 -20 -29 -9 -36 -6 -81 35 -66 59
-102 134 -108 222 -4 64 -3 68 27 100 17 18 35 30 40 27 5 -3 14 4 20 15 6 11
17 20 24 20 7 0 21 9 31 20 10 11 22 17 26 14 5 -3 9 5 9 17 0 17 3 19 14 10
8 -7 15 -42 18 -96z m368 0 c17 -9 30 -19 30 -23 0 -10 -67 -62 -80 -62 -7 0
-9 13 -5 38 12 70 11 70 55 47z"/>
<path d="M2748 1263 c-24 -6 -23 -23 2 -23 19 0 20 -7 20 -180 0 -173 -1 -180
-20 -180 -11 0 -20 -4 -20 -10 0 -6 28 -10 65 -10 63 0 86 12 45 23 -19 5 -20
14 -20 196 l0 191 -27 -1 c-16 -1 -36 -3 -45 -6z"/>
<path d="M2169 1244 c-9 -11 -10 -20 -3 -32 15 -23 29 -25 48 -7 12 12 13 21
6 36 -13 23 -33 25 -51 3z"/>
<path d="M2609 1244 c-9 -11 -10 -20 -3 -32 15 -23 29 -25 48 -7 12 12 13 21
6 36 -13 23 -33 25 -51 3z"/>
<path d="M1207 1229 c-101 -53 -129 -225 -51 -318 53 -63 167 -78 234 -31 39
28 32 38 -14 16 -44 -21 -115 -21 -145 0 -35 25 -61 91 -61 155 0 121 85 200
188 173 17 -5 22 -14 22 -40 0 -30 14 -53 27 -41 2 3 7 24 10 46 5 37 3 41
-21 51 -46 17 -147 11 -189 -11z"/>
<path d="M1744 1238 c-3 -4 6 -10 19 -13 21 -6 35 -33 96 -191 40 -101 76
-184 81 -184 9 0 13 11 90 224 48 134 60 156 88 156 6 0 12 3 12 8 0 8 -109 7
-117 -2 -4 -3 -2 -6 3 -6 5 0 15 -4 23 -9 11 -7 5 -35 -34 -150 -26 -78 -48
-141 -50 -139 -2 2 -26 66 -54 142 -50 136 -53 155 -18 156 4 0 7 3 7 8 0 9
-140 9 -146 0z"/>
<path d="M2511 1149 c-25 -15 -43 -19 -71 -14 -42 7 -96 -11 -119 -39 -23 -27
-19 -82 7 -109 20 -21 21 -28 11 -50 -9 -20 -9 -30 -1 -40 9 -11 6 -19 -13
-37 -59 -55 -14 -120 84 -120 101 0 159 50 135 118 -8 23 -18 29 -69 40 -93
20 -110 26 -110 42 0 10 11 15 30 16 67 2 78 5 106 33 34 35 37 68 9 104 l-21
26 36 7 c36 6 40 11 27 31 -6 9 -16 7 -41 -8z m-51 -49 c42 -42 13 -130 -42
-130 -34 0 -68 38 -68 76 0 63 68 96 110 54z m26 -255 c30 -19 30 -27 1 -61
-45 -52 -147 -28 -147 36 0 41 18 53 74 46 27 -3 59 -12 72 -21z"/>
<path d="M1503 1106 c-34 -31 -37 -39 -41 -97 -3 -55 0 -69 20 -99 46 -68 149
-78 207 -19 57 56 52 172 -10 223 -25 21 -41 26 -85 26 -48 0 -59 -4 -91 -34z
m143 -11 c39 -60 36 -173 -6 -207 -71 -57 -143 27 -126 146 9 56 37 86 81 86
26 0 39 -6 51 -25z"/>
<path d="M2175 1133 c-44 -9 -51 -16 -25 -22 24 -7 25 -9 28 -115 3 -101 1
-108 -18 -113 -42 -11 -17 -23 48 -22 64 0 66 1 45 16 -22 15 -23 22 -23 139
0 134 2 130 -55 117z"/>
<path d="M2620 1133 c-47 -8 -57 -15 -30 -22 25 -7 25 -9 28 -119 3 -107 2
-112 -18 -112 -11 0 -20 -4 -20 -10 0 -6 28 -10 65 -10 63 0 86 12 45 23 -19
5 -20 14 -20 131 0 95 -3 126 -12 125 -7 -1 -24 -4 -38 -6z"/>
<path d="M2927 1133 c-14 -4 -17 -13 -15 -41 4 -44 21 -48 28 -6 5 26 9 29 48
32 38 3 43 0 52 -23 6 -14 10 -39 10 -55 0 -25 -4 -28 -47 -35 -26 -4 -60 -13
-75 -21 -49 -25 -50 -101 -3 -122 34 -16 54 -15 88 3 25 13 31 13 50 0 13 -8
32 -12 45 -8 24 6 30 23 8 23 -10 0 -14 26 -18 110 -6 137 -14 151 -97 149
-31 -1 -64 -3 -74 -6z m123 -182 c0 -30 -6 -44 -22 -55 -45 -32 -88 -14 -88
35 0 38 26 55 88 58 19 1 22 -4 22 -38z"/>
<path d="M3188 1133 c-33 -5 -37 -18 -8 -26 18 -5 20 -14 20 -116 0 -104 -1
-111 -20 -111 -11 0 -20 -4 -20 -10 0 -6 28 -10 65 -10 63 0 86 12 45 23 -18
5 -20 14 -20 102 l0 96 35 15 c45 18 51 18 75 -6 17 -17 20 -33 20 -111 0 -82
-2 -91 -20 -96 -41 -11 -18 -23 45 -23 63 0 86 12 45 23 -18 5 -20 14 -20 105
0 85 -3 103 -21 126 -26 32 -79 35 -126 6 -33 -20 -33 -20 -33 0 0 20 -6 21
-62 13z"/>
<path d="M3556 1120 c-103 -67 -72 -243 48 -265 36 -7 106 16 106 36 0 7 -7 8
-17 4 -91 -38 -143 1 -143 105 0 55 19 104 45 114 9 3 32 6 51 6 29 0 34 -4
34 -22 0 -24 16 -56 24 -48 2 3 7 21 11 41 6 32 4 37 -17 42 -47 13 -113 7
-142 -13z"/>
<path d="M3830 1127 c-93 -47 -93 -209 0 -259 44 -24 105 -18 134 13 20 21 20
22 1 14 -66 -25 -108 -17 -135 28 -11 17 -20 44 -20 60 l0 27 91 0 c90 0 91 0
85 23 -3 12 -6 30 -6 40 0 10 -11 29 -25 42 -27 28 -83 33 -125 12z m104 -45
c12 -43 -1 -52 -71 -52 l-53 0 11 27 c17 45 40 64 73 61 25 -2 32 -9 40 -36z"/>
</g>
</svg>
